<mxfile host="app.diagrams.net" modified="2023-08-25T18:53:21.176Z" agent="Mozilla/5.0 (Macintosh; Intel Mac OS X 10_15_7) AppleWebKit/537.36 (KHTML, like Gecko) Chrome/115.0.0.0 Safari/537.36" etag="HEzOPDSuFslKL6vkLyXh" version="21.6.1" type="device">
  <diagram name="Page-1" id="2YBvvXClWsGukQMizWep">
    <mxGraphModel dx="984" dy="573" grid="1" gridSize="10" guides="1" tooltips="1" connect="1" arrows="1" fold="1" page="1" pageScale="1" pageWidth="850" pageHeight="1100" background="none" math="0" shadow="0">
      <root>
        <mxCell id="0" />
        <mxCell id="1" parent="0" />
        <mxCell id="dCMI-PgEhmH9NBmvwDKB-2" value="&lt;u&gt;&lt;font style=&quot;font-size: 14px;&quot;&gt;&lt;b&gt;:user&lt;/b&gt;&lt;/font&gt;&lt;/u&gt;" style="rounded=0;whiteSpace=wrap;html=1;fillColor=#009999;" vertex="1" parent="1">
          <mxGeometry x="130" y="90" width="80" height="40" as="geometry" />
        </mxCell>
        <mxCell id="dCMI-PgEhmH9NBmvwDKB-3" value="&lt;u&gt;&lt;font style=&quot;font-size: 14px;&quot;&gt;&lt;b&gt;:interface&lt;/b&gt;&lt;/font&gt;&lt;/u&gt;" style="rounded=0;whiteSpace=wrap;html=1;fillColor=#009999;" vertex="1" parent="1">
          <mxGeometry x="330" y="90" width="80" height="40" as="geometry" />
        </mxCell>
        <mxCell id="dCMI-PgEhmH9NBmvwDKB-4" value="&lt;u&gt;&lt;font style=&quot;font-size: 14px;&quot;&gt;&lt;b&gt;:database&lt;/b&gt;&lt;/font&gt;&lt;/u&gt;" style="rounded=0;whiteSpace=wrap;html=1;fillColor=#009999;" vertex="1" parent="1">
          <mxGeometry x="540" y="90" width="80" height="40" as="geometry" />
        </mxCell>
        <mxCell id="dCMI-PgEhmH9NBmvwDKB-5" value="" style="endArrow=none;dashed=1;html=1;rounded=0;entryX=0.5;entryY=1;entryDx=0;entryDy=0;" edge="1" parent="1" target="dCMI-PgEhmH9NBmvwDKB-2">
          <mxGeometry width="50" height="50" relative="1" as="geometry">
            <mxPoint x="170" y="170" as="sourcePoint" />
            <mxPoint x="450" y="290" as="targetPoint" />
          </mxGeometry>
        </mxCell>
        <mxCell id="dCMI-PgEhmH9NBmvwDKB-7" value="" style="endArrow=none;dashed=1;html=1;rounded=0;entryX=0.5;entryY=1;entryDx=0;entryDy=0;" edge="1" parent="1" target="dCMI-PgEhmH9NBmvwDKB-3">
          <mxGeometry width="50" height="50" relative="1" as="geometry">
            <mxPoint x="370" y="170" as="sourcePoint" />
            <mxPoint x="180" y="140" as="targetPoint" />
          </mxGeometry>
        </mxCell>
        <mxCell id="dCMI-PgEhmH9NBmvwDKB-8" value="" style="endArrow=none;dashed=1;html=1;rounded=0;exitX=0.5;exitY=1;exitDx=0;exitDy=0;" edge="1" parent="1" source="dCMI-PgEhmH9NBmvwDKB-29">
          <mxGeometry width="50" height="50" relative="1" as="geometry">
            <mxPoint x="180" y="220" as="sourcePoint" />
            <mxPoint x="580" y="200" as="targetPoint" />
          </mxGeometry>
        </mxCell>
        <mxCell id="dCMI-PgEhmH9NBmvwDKB-9" value="" style="rounded=1;whiteSpace=wrap;html=1;direction=south;fillColor=#CCCCCC;" vertex="1" parent="1">
          <mxGeometry x="160" y="170" width="20" height="90" as="geometry" />
        </mxCell>
        <mxCell id="dCMI-PgEhmH9NBmvwDKB-10" value="" style="rounded=1;whiteSpace=wrap;html=1;direction=south;fillColor=#CCCCCC;" vertex="1" parent="1">
          <mxGeometry x="160" y="300" width="20" height="90" as="geometry" />
        </mxCell>
        <mxCell id="dCMI-PgEhmH9NBmvwDKB-11" value="" style="rounded=1;whiteSpace=wrap;html=1;direction=south;fillColor=#CCCCCC;" vertex="1" parent="1">
          <mxGeometry x="160" y="780" width="20" height="90" as="geometry" />
        </mxCell>
        <mxCell id="dCMI-PgEhmH9NBmvwDKB-12" value="" style="rounded=1;whiteSpace=wrap;html=1;direction=south;fillColor=#CCCCCC;" vertex="1" parent="1">
          <mxGeometry x="160" y="660" width="20" height="90" as="geometry" />
        </mxCell>
        <mxCell id="dCMI-PgEhmH9NBmvwDKB-13" value="" style="rounded=1;whiteSpace=wrap;html=1;direction=south;fillColor=#CCCCCC;" vertex="1" parent="1">
          <mxGeometry x="160" y="540" width="20" height="90" as="geometry" />
        </mxCell>
        <mxCell id="dCMI-PgEhmH9NBmvwDKB-14" value="" style="rounded=1;whiteSpace=wrap;html=1;direction=south;fillColor=#CCCCCC;" vertex="1" parent="1">
          <mxGeometry x="160" y="420" width="20" height="90" as="geometry" />
        </mxCell>
        <mxCell id="dCMI-PgEhmH9NBmvwDKB-15" value="" style="endArrow=none;dashed=1;html=1;rounded=0;entryX=1;entryY=0.5;entryDx=0;entryDy=0;exitX=0;exitY=0.5;exitDx=0;exitDy=0;" edge="1" parent="1" source="dCMI-PgEhmH9NBmvwDKB-31" target="dCMI-PgEhmH9NBmvwDKB-32">
          <mxGeometry width="50" height="50" relative="1" as="geometry">
            <mxPoint x="290" y="470" as="sourcePoint" />
            <mxPoint x="290" y="430" as="targetPoint" />
          </mxGeometry>
        </mxCell>
        <mxCell id="dCMI-PgEhmH9NBmvwDKB-16" value="" style="endArrow=none;dashed=1;html=1;rounded=0;" edge="1" parent="1">
          <mxGeometry width="50" height="50" relative="1" as="geometry">
            <mxPoint x="169.5" y="540" as="sourcePoint" />
            <mxPoint x="170" y="510" as="targetPoint" />
          </mxGeometry>
        </mxCell>
        <mxCell id="dCMI-PgEhmH9NBmvwDKB-17" value="" style="endArrow=none;dashed=1;html=1;rounded=0;entryX=0;entryY=0.5;entryDx=0;entryDy=0;exitX=1;exitY=0.5;exitDx=0;exitDy=0;" edge="1" parent="1" source="dCMI-PgEhmH9NBmvwDKB-10" target="dCMI-PgEhmH9NBmvwDKB-14">
          <mxGeometry width="50" height="50" relative="1" as="geometry">
            <mxPoint x="200" y="200" as="sourcePoint" />
            <mxPoint x="200" y="160" as="targetPoint" />
          </mxGeometry>
        </mxCell>
        <mxCell id="dCMI-PgEhmH9NBmvwDKB-18" value="" style="endArrow=none;dashed=1;html=1;rounded=0;entryX=0;entryY=0.5;entryDx=0;entryDy=0;exitX=1;exitY=0.5;exitDx=0;exitDy=0;" edge="1" parent="1" source="dCMI-PgEhmH9NBmvwDKB-9" target="dCMI-PgEhmH9NBmvwDKB-10">
          <mxGeometry width="50" height="50" relative="1" as="geometry">
            <mxPoint x="210" y="210" as="sourcePoint" />
            <mxPoint x="210" y="170" as="targetPoint" />
          </mxGeometry>
        </mxCell>
        <mxCell id="dCMI-PgEhmH9NBmvwDKB-19" value="" style="endArrow=none;dashed=1;html=1;rounded=0;entryX=1;entryY=0.5;entryDx=0;entryDy=0;exitX=0;exitY=0.5;exitDx=0;exitDy=0;exitPerimeter=0;" edge="1" parent="1" source="dCMI-PgEhmH9NBmvwDKB-26" target="dCMI-PgEhmH9NBmvwDKB-27">
          <mxGeometry width="50" height="50" relative="1" as="geometry">
            <mxPoint x="220" y="220" as="sourcePoint" />
            <mxPoint x="220" y="180" as="targetPoint" />
          </mxGeometry>
        </mxCell>
        <mxCell id="dCMI-PgEhmH9NBmvwDKB-20" value="" style="endArrow=none;dashed=1;html=1;rounded=0;entryX=1;entryY=0.5;entryDx=0;entryDy=0;exitX=0;exitY=0.5;exitDx=0;exitDy=0;" edge="1" parent="1" source="dCMI-PgEhmH9NBmvwDKB-27" target="dCMI-PgEhmH9NBmvwDKB-28">
          <mxGeometry width="50" height="50" relative="1" as="geometry">
            <mxPoint x="230" y="230" as="sourcePoint" />
            <mxPoint x="230" y="190" as="targetPoint" />
            <Array as="points" />
          </mxGeometry>
        </mxCell>
        <mxCell id="dCMI-PgEhmH9NBmvwDKB-21" value="" style="endArrow=none;dashed=1;html=1;rounded=0;entryX=1;entryY=0.5;entryDx=0;entryDy=0;exitX=0;exitY=0.5;exitDx=0;exitDy=0;" edge="1" parent="1" source="dCMI-PgEhmH9NBmvwDKB-28" target="dCMI-PgEhmH9NBmvwDKB-29">
          <mxGeometry width="50" height="50" relative="1" as="geometry">
            <mxPoint x="520" y="340" as="sourcePoint" />
            <mxPoint x="520" y="300" as="targetPoint" />
          </mxGeometry>
        </mxCell>
        <mxCell id="dCMI-PgEhmH9NBmvwDKB-22" value="" style="endArrow=none;dashed=1;html=1;rounded=0;entryX=1;entryY=0.5;entryDx=0;entryDy=0;exitX=0;exitY=0.5;exitDx=0;exitDy=0;" edge="1" parent="1" source="dCMI-PgEhmH9NBmvwDKB-30" target="dCMI-PgEhmH9NBmvwDKB-31">
          <mxGeometry width="50" height="50" relative="1" as="geometry">
            <mxPoint x="310" y="660" as="sourcePoint" />
            <mxPoint x="310" y="620" as="targetPoint" />
          </mxGeometry>
        </mxCell>
        <mxCell id="dCMI-PgEhmH9NBmvwDKB-23" value="" style="endArrow=none;dashed=1;html=1;rounded=0;entryX=0;entryY=0.5;entryDx=0;entryDy=0;exitX=1;exitY=0.5;exitDx=0;exitDy=0;" edge="1" parent="1" source="dCMI-PgEhmH9NBmvwDKB-33" target="dCMI-PgEhmH9NBmvwDKB-32">
          <mxGeometry width="50" height="50" relative="1" as="geometry">
            <mxPoint x="260" y="260" as="sourcePoint" />
            <mxPoint x="260" y="220" as="targetPoint" />
          </mxGeometry>
        </mxCell>
        <mxCell id="dCMI-PgEhmH9NBmvwDKB-24" value="" style="endArrow=none;dashed=1;html=1;rounded=0;entryX=1;entryY=0.5;entryDx=0;entryDy=0;exitX=0;exitY=0.5;exitDx=0;exitDy=0;" edge="1" parent="1" source="dCMI-PgEhmH9NBmvwDKB-33" target="dCMI-PgEhmH9NBmvwDKB-34">
          <mxGeometry width="50" height="50" relative="1" as="geometry">
            <mxPoint x="270" y="270" as="sourcePoint" />
            <mxPoint x="270" y="230" as="targetPoint" />
          </mxGeometry>
        </mxCell>
        <mxCell id="dCMI-PgEhmH9NBmvwDKB-26" value="" style="rounded=1;whiteSpace=wrap;html=1;direction=south;fillColor=#CCCCCC;" vertex="1" parent="1">
          <mxGeometry x="570" y="660" width="20" height="90" as="geometry" />
        </mxCell>
        <mxCell id="dCMI-PgEhmH9NBmvwDKB-27" value="" style="rounded=1;whiteSpace=wrap;html=1;direction=south;fillColor=#CCCCCC;" vertex="1" parent="1">
          <mxGeometry x="570" y="420" width="20" height="90" as="geometry" />
        </mxCell>
        <mxCell id="dCMI-PgEhmH9NBmvwDKB-28" value="" style="rounded=1;whiteSpace=wrap;html=1;direction=south;fillColor=#CCCCCC;" vertex="1" parent="1">
          <mxGeometry x="570" y="300" width="20" height="90" as="geometry" />
        </mxCell>
        <mxCell id="dCMI-PgEhmH9NBmvwDKB-30" value="" style="rounded=1;whiteSpace=wrap;html=1;direction=south;fillColor=#CCCCCC;" vertex="1" parent="1">
          <mxGeometry x="360" y="660" width="20" height="90" as="geometry" />
        </mxCell>
        <mxCell id="dCMI-PgEhmH9NBmvwDKB-31" value="" style="rounded=1;whiteSpace=wrap;html=1;direction=south;fillColor=#CCCCCC;" vertex="1" parent="1">
          <mxGeometry x="360" y="540" width="20" height="90" as="geometry" />
        </mxCell>
        <mxCell id="dCMI-PgEhmH9NBmvwDKB-32" value="" style="rounded=1;whiteSpace=wrap;html=1;direction=south;fillColor=#CCCCCC;" vertex="1" parent="1">
          <mxGeometry x="360" y="420" width="20" height="90" as="geometry" />
        </mxCell>
        <mxCell id="dCMI-PgEhmH9NBmvwDKB-33" value="" style="rounded=1;whiteSpace=wrap;html=1;direction=south;fillColor=#CCCCCC;" vertex="1" parent="1">
          <mxGeometry x="360" y="300" width="20" height="90" as="geometry" />
        </mxCell>
        <mxCell id="dCMI-PgEhmH9NBmvwDKB-34" value="" style="rounded=1;whiteSpace=wrap;html=1;direction=south;fillColor=#CCCCCC;" vertex="1" parent="1">
          <mxGeometry x="360" y="170" width="20" height="90" as="geometry" />
        </mxCell>
        <mxCell id="dCMI-PgEhmH9NBmvwDKB-36" value="" style="endArrow=classic;html=1;rounded=0;exitX=0.25;exitY=0;exitDx=0;exitDy=0;entryX=0.25;entryY=1;entryDx=0;entryDy=0;" edge="1" parent="1" source="dCMI-PgEhmH9NBmvwDKB-9" target="dCMI-PgEhmH9NBmvwDKB-34">
          <mxGeometry width="50" height="50" relative="1" as="geometry">
            <mxPoint x="400" y="390" as="sourcePoint" />
            <mxPoint x="450" y="340" as="targetPoint" />
          </mxGeometry>
        </mxCell>
        <mxCell id="dCMI-PgEhmH9NBmvwDKB-54" value="Sign Up" style="edgeLabel;html=1;align=center;verticalAlign=middle;resizable=0;points=[];" vertex="1" connectable="0" parent="dCMI-PgEhmH9NBmvwDKB-36">
          <mxGeometry x="-0.2111" y="1" relative="1" as="geometry">
            <mxPoint y="1" as="offset" />
          </mxGeometry>
        </mxCell>
        <mxCell id="dCMI-PgEhmH9NBmvwDKB-37" value="" style="endArrow=classic;html=1;rounded=0;exitX=0.25;exitY=0;exitDx=0;exitDy=0;entryX=0.25;entryY=1;entryDx=0;entryDy=0;" edge="1" parent="1" source="dCMI-PgEhmH9NBmvwDKB-10" target="dCMI-PgEhmH9NBmvwDKB-33">
          <mxGeometry width="50" height="50" relative="1" as="geometry">
            <mxPoint x="400" y="390" as="sourcePoint" />
            <mxPoint x="450" y="340" as="targetPoint" />
          </mxGeometry>
        </mxCell>
        <mxCell id="dCMI-PgEhmH9NBmvwDKB-55" value="Login In" style="edgeLabel;html=1;align=center;verticalAlign=middle;resizable=0;points=[];" vertex="1" connectable="0" parent="dCMI-PgEhmH9NBmvwDKB-37">
          <mxGeometry x="-0.1444" relative="1" as="geometry">
            <mxPoint y="1" as="offset" />
          </mxGeometry>
        </mxCell>
        <mxCell id="dCMI-PgEhmH9NBmvwDKB-38" value="" style="endArrow=classic;html=1;rounded=0;exitX=0.25;exitY=0;exitDx=0;exitDy=0;entryX=0.25;entryY=1;entryDx=0;entryDy=0;" edge="1" parent="1" source="dCMI-PgEhmH9NBmvwDKB-14" target="dCMI-PgEhmH9NBmvwDKB-32">
          <mxGeometry width="50" height="50" relative="1" as="geometry">
            <mxPoint x="400" y="390" as="sourcePoint" />
            <mxPoint x="450" y="340" as="targetPoint" />
          </mxGeometry>
        </mxCell>
        <mxCell id="dCMI-PgEhmH9NBmvwDKB-56" value="Health Conditions" style="edgeLabel;html=1;align=center;verticalAlign=middle;resizable=0;points=[];" vertex="1" connectable="0" parent="dCMI-PgEhmH9NBmvwDKB-38">
          <mxGeometry x="-0.1" y="-2" relative="1" as="geometry">
            <mxPoint y="1" as="offset" />
          </mxGeometry>
        </mxCell>
        <mxCell id="dCMI-PgEhmH9NBmvwDKB-39" value="" style="endArrow=classic;html=1;rounded=0;exitX=0.25;exitY=0;exitDx=0;exitDy=0;entryX=0.25;entryY=1;entryDx=0;entryDy=0;" edge="1" parent="1" source="dCMI-PgEhmH9NBmvwDKB-13" target="dCMI-PgEhmH9NBmvwDKB-31">
          <mxGeometry width="50" height="50" relative="1" as="geometry">
            <mxPoint x="400" y="500" as="sourcePoint" />
            <mxPoint x="450" y="450" as="targetPoint" />
          </mxGeometry>
        </mxCell>
        <mxCell id="dCMI-PgEhmH9NBmvwDKB-57" value="Connect To watch" style="edgeLabel;html=1;align=center;verticalAlign=middle;resizable=0;points=[];" vertex="1" connectable="0" parent="dCMI-PgEhmH9NBmvwDKB-39">
          <mxGeometry x="-0.1333" y="-2" relative="1" as="geometry">
            <mxPoint y="1" as="offset" />
          </mxGeometry>
        </mxCell>
        <mxCell id="dCMI-PgEhmH9NBmvwDKB-40" value="" style="endArrow=classic;html=1;rounded=0;exitX=0.25;exitY=0;exitDx=0;exitDy=0;entryX=0.25;entryY=1;entryDx=0;entryDy=0;" edge="1" parent="1" source="dCMI-PgEhmH9NBmvwDKB-12" target="dCMI-PgEhmH9NBmvwDKB-30">
          <mxGeometry width="50" height="50" relative="1" as="geometry">
            <mxPoint x="400" y="640" as="sourcePoint" />
            <mxPoint x="450" y="590" as="targetPoint" />
          </mxGeometry>
        </mxCell>
        <mxCell id="dCMI-PgEhmH9NBmvwDKB-58" value="Overdose Detected" style="edgeLabel;html=1;align=center;verticalAlign=middle;resizable=0;points=[];" vertex="1" connectable="0" parent="dCMI-PgEhmH9NBmvwDKB-40">
          <mxGeometry y="-1" relative="1" as="geometry">
            <mxPoint y="1" as="offset" />
          </mxGeometry>
        </mxCell>
        <mxCell id="dCMI-PgEhmH9NBmvwDKB-41" value="" style="endArrow=none;dashed=1;html=1;rounded=0;exitX=0.5;exitY=1;exitDx=0;exitDy=0;" edge="1" parent="1" source="dCMI-PgEhmH9NBmvwDKB-4" target="dCMI-PgEhmH9NBmvwDKB-29">
          <mxGeometry width="50" height="50" relative="1" as="geometry">
            <mxPoint x="580" y="130" as="sourcePoint" />
            <mxPoint x="580" y="200" as="targetPoint" />
          </mxGeometry>
        </mxCell>
        <mxCell id="dCMI-PgEhmH9NBmvwDKB-29" value="" style="rounded=1;whiteSpace=wrap;html=1;direction=south;fillColor=#CCCCCC;" vertex="1" parent="1">
          <mxGeometry x="570" y="170" width="20" height="90" as="geometry" />
        </mxCell>
        <mxCell id="dCMI-PgEhmH9NBmvwDKB-42" value="" style="rounded=1;whiteSpace=wrap;html=1;direction=south;fillColor=#CCCCCC;" vertex="1" parent="1">
          <mxGeometry x="360" y="780" width="20" height="90" as="geometry" />
        </mxCell>
        <mxCell id="dCMI-PgEhmH9NBmvwDKB-43" value="" style="endArrow=none;dashed=1;html=1;rounded=0;entryX=1;entryY=0.5;entryDx=0;entryDy=0;exitX=0;exitY=0.5;exitDx=0;exitDy=0;" edge="1" parent="1" source="dCMI-PgEhmH9NBmvwDKB-42" target="dCMI-PgEhmH9NBmvwDKB-30">
          <mxGeometry width="50" height="50" relative="1" as="geometry">
            <mxPoint x="590" y="670" as="sourcePoint" />
            <mxPoint x="590" y="520" as="targetPoint" />
          </mxGeometry>
        </mxCell>
        <mxCell id="dCMI-PgEhmH9NBmvwDKB-44" value="" style="endArrow=none;dashed=1;html=1;rounded=0;exitX=0;exitY=0.5;exitDx=0;exitDy=0;entryX=1;entryY=0.5;entryDx=0;entryDy=0;" edge="1" parent="1" source="dCMI-PgEhmH9NBmvwDKB-11" target="dCMI-PgEhmH9NBmvwDKB-12">
          <mxGeometry width="50" height="50" relative="1" as="geometry">
            <mxPoint x="590" y="670" as="sourcePoint" />
            <mxPoint x="210" y="740" as="targetPoint" />
          </mxGeometry>
        </mxCell>
        <mxCell id="dCMI-PgEhmH9NBmvwDKB-45" value="" style="endArrow=none;dashed=1;html=1;rounded=0;exitX=1;exitY=0.5;exitDx=0;exitDy=0;entryX=0;entryY=0.5;entryDx=0;entryDy=0;" edge="1" parent="1" source="dCMI-PgEhmH9NBmvwDKB-13" target="dCMI-PgEhmH9NBmvwDKB-12">
          <mxGeometry width="50" height="50" relative="1" as="geometry">
            <mxPoint x="600" y="680" as="sourcePoint" />
            <mxPoint x="170" y="650" as="targetPoint" />
          </mxGeometry>
        </mxCell>
        <mxCell id="dCMI-PgEhmH9NBmvwDKB-46" value="" style="endArrow=classic;html=1;rounded=0;exitX=0.25;exitY=0;exitDx=0;exitDy=0;entryX=0.25;entryY=1;entryDx=0;entryDy=0;" edge="1" parent="1" source="dCMI-PgEhmH9NBmvwDKB-11" target="dCMI-PgEhmH9NBmvwDKB-42">
          <mxGeometry width="50" height="50" relative="1" as="geometry">
            <mxPoint x="190" y="693" as="sourcePoint" />
            <mxPoint x="370" y="693" as="targetPoint" />
          </mxGeometry>
        </mxCell>
        <mxCell id="dCMI-PgEhmH9NBmvwDKB-59" value="Request Assisstance" style="edgeLabel;html=1;align=center;verticalAlign=middle;resizable=0;points=[];" vertex="1" connectable="0" parent="dCMI-PgEhmH9NBmvwDKB-46">
          <mxGeometry x="-0.0222" y="2" relative="1" as="geometry">
            <mxPoint y="1" as="offset" />
          </mxGeometry>
        </mxCell>
        <mxCell id="dCMI-PgEhmH9NBmvwDKB-47" value="" style="endArrow=classic;html=1;rounded=0;exitX=0.25;exitY=0;exitDx=0;exitDy=0;entryX=0.25;entryY=1;entryDx=0;entryDy=0;" edge="1" parent="1" source="dCMI-PgEhmH9NBmvwDKB-34" target="dCMI-PgEhmH9NBmvwDKB-29">
          <mxGeometry width="50" height="50" relative="1" as="geometry">
            <mxPoint x="400" y="430" as="sourcePoint" />
            <mxPoint x="450" y="380" as="targetPoint" />
          </mxGeometry>
        </mxCell>
        <mxCell id="dCMI-PgEhmH9NBmvwDKB-60" value="Add Account Details" style="edgeLabel;html=1;align=center;verticalAlign=middle;resizable=0;points=[];" vertex="1" connectable="0" parent="dCMI-PgEhmH9NBmvwDKB-47">
          <mxGeometry x="-0.2105" y="2" relative="1" as="geometry">
            <mxPoint y="1" as="offset" />
          </mxGeometry>
        </mxCell>
        <mxCell id="dCMI-PgEhmH9NBmvwDKB-48" value="" style="endArrow=classic;html=1;rounded=0;exitX=0.25;exitY=0;exitDx=0;exitDy=0;entryX=0.25;entryY=1;entryDx=0;entryDy=0;" edge="1" parent="1" source="dCMI-PgEhmH9NBmvwDKB-33" target="dCMI-PgEhmH9NBmvwDKB-28">
          <mxGeometry width="50" height="50" relative="1" as="geometry">
            <mxPoint x="190" y="333" as="sourcePoint" />
            <mxPoint x="370" y="333" as="targetPoint" />
          </mxGeometry>
        </mxCell>
        <mxCell id="dCMI-PgEhmH9NBmvwDKB-61" value="Authenticate User" style="edgeLabel;html=1;align=center;verticalAlign=middle;resizable=0;points=[];" vertex="1" connectable="0" parent="dCMI-PgEhmH9NBmvwDKB-48">
          <mxGeometry x="-0.2947" relative="1" as="geometry">
            <mxPoint y="1" as="offset" />
          </mxGeometry>
        </mxCell>
        <mxCell id="dCMI-PgEhmH9NBmvwDKB-49" value="" style="endArrow=classic;html=1;rounded=0;exitX=0.25;exitY=0;exitDx=0;exitDy=0;entryX=0.25;entryY=1;entryDx=0;entryDy=0;" edge="1" parent="1" source="dCMI-PgEhmH9NBmvwDKB-32" target="dCMI-PgEhmH9NBmvwDKB-27">
          <mxGeometry width="50" height="50" relative="1" as="geometry">
            <mxPoint x="200" y="343" as="sourcePoint" />
            <mxPoint x="380" y="343" as="targetPoint" />
          </mxGeometry>
        </mxCell>
        <mxCell id="dCMI-PgEhmH9NBmvwDKB-62" value="Query ML dataset" style="edgeLabel;html=1;align=center;verticalAlign=middle;resizable=0;points=[];" vertex="1" connectable="0" parent="dCMI-PgEhmH9NBmvwDKB-49">
          <mxGeometry x="-0.1684" relative="1" as="geometry">
            <mxPoint y="1" as="offset" />
          </mxGeometry>
        </mxCell>
        <mxCell id="dCMI-PgEhmH9NBmvwDKB-50" value="" style="endArrow=classic;html=1;rounded=0;exitX=0.25;exitY=0;exitDx=0;exitDy=0;entryX=0.25;entryY=1;entryDx=0;entryDy=0;" edge="1" parent="1" source="dCMI-PgEhmH9NBmvwDKB-30" target="dCMI-PgEhmH9NBmvwDKB-26">
          <mxGeometry width="50" height="50" relative="1" as="geometry">
            <mxPoint x="210" y="353" as="sourcePoint" />
            <mxPoint x="390" y="353" as="targetPoint" />
          </mxGeometry>
        </mxCell>
        <mxCell id="dCMI-PgEhmH9NBmvwDKB-63" value="Query Energency Contact" style="edgeLabel;html=1;align=center;verticalAlign=middle;resizable=0;points=[];" vertex="1" connectable="0" parent="dCMI-PgEhmH9NBmvwDKB-50">
          <mxGeometry x="-0.2105" y="3" relative="1" as="geometry">
            <mxPoint y="1" as="offset" />
          </mxGeometry>
        </mxCell>
        <mxCell id="dCMI-PgEhmH9NBmvwDKB-64" value="" style="endArrow=none;dashed=1;html=1;rounded=0;entryX=1;entryY=0.5;entryDx=0;entryDy=0;" edge="1" parent="1" target="dCMI-PgEhmH9NBmvwDKB-26">
          <mxGeometry width="50" height="50" relative="1" as="geometry">
            <mxPoint x="580" y="790" as="sourcePoint" />
            <mxPoint x="380" y="640" as="targetPoint" />
          </mxGeometry>
        </mxCell>
        <mxCell id="dCMI-PgEhmH9NBmvwDKB-69" value="&lt;font style=&quot;font-size: 11px;&quot;&gt;Profile Created&amp;nbsp;&lt;/font&gt;" style="html=1;labelBackgroundColor=#ffffff;startArrow=none;startFill=0;startSize=6;endArrow=classic;endFill=1;endSize=6;jettySize=auto;orthogonalLoop=1;strokeWidth=1;dashed=1;fontSize=14;rounded=0;entryX=0.75;entryY=0;entryDx=0;entryDy=0;exitX=0.75;exitY=1;exitDx=0;exitDy=0;" edge="1" parent="1" source="dCMI-PgEhmH9NBmvwDKB-34" target="dCMI-PgEhmH9NBmvwDKB-9">
          <mxGeometry width="60" height="60" relative="1" as="geometry">
            <mxPoint x="390" y="460" as="sourcePoint" />
            <mxPoint x="450" y="400" as="targetPoint" />
            <mxPoint as="offset" />
          </mxGeometry>
        </mxCell>
        <mxCell id="dCMI-PgEhmH9NBmvwDKB-70" value="" style="html=1;labelBackgroundColor=#ffffff;startArrow=none;startFill=0;startSize=6;endArrow=classic;endFill=1;endSize=6;jettySize=auto;orthogonalLoop=1;strokeWidth=1;dashed=1;fontSize=14;rounded=0;entryX=0.75;entryY=0;entryDx=0;entryDy=0;exitX=0.75;exitY=1;exitDx=0;exitDy=0;" edge="1" parent="1" source="dCMI-PgEhmH9NBmvwDKB-30" target="dCMI-PgEhmH9NBmvwDKB-12">
          <mxGeometry width="60" height="60" relative="1" as="geometry">
            <mxPoint x="370" y="248" as="sourcePoint" />
            <mxPoint x="190" y="248" as="targetPoint" />
          </mxGeometry>
        </mxCell>
        <mxCell id="dCMI-PgEhmH9NBmvwDKB-82" value="Send Alerts" style="edgeLabel;html=1;align=center;verticalAlign=middle;resizable=0;points=[];" vertex="1" connectable="0" parent="dCMI-PgEhmH9NBmvwDKB-70">
          <mxGeometry x="0.1222" y="3" relative="1" as="geometry">
            <mxPoint as="offset" />
          </mxGeometry>
        </mxCell>
        <mxCell id="dCMI-PgEhmH9NBmvwDKB-71" value="" style="html=1;labelBackgroundColor=#ffffff;startArrow=none;startFill=0;startSize=6;endArrow=classic;endFill=1;endSize=6;jettySize=auto;orthogonalLoop=1;strokeWidth=1;dashed=1;fontSize=14;rounded=0;entryX=0.75;entryY=0;entryDx=0;entryDy=0;exitX=0.75;exitY=1;exitDx=0;exitDy=0;" edge="1" parent="1" source="dCMI-PgEhmH9NBmvwDKB-31" target="dCMI-PgEhmH9NBmvwDKB-13">
          <mxGeometry width="60" height="60" relative="1" as="geometry">
            <mxPoint x="380" y="258" as="sourcePoint" />
            <mxPoint x="200" y="258" as="targetPoint" />
          </mxGeometry>
        </mxCell>
        <mxCell id="dCMI-PgEhmH9NBmvwDKB-81" value="Measured Vitals" style="edgeLabel;html=1;align=center;verticalAlign=middle;resizable=0;points=[];" vertex="1" connectable="0" parent="dCMI-PgEhmH9NBmvwDKB-71">
          <mxGeometry x="0.1556" y="3" relative="1" as="geometry">
            <mxPoint as="offset" />
          </mxGeometry>
        </mxCell>
        <mxCell id="dCMI-PgEhmH9NBmvwDKB-72" value="" style="html=1;labelBackgroundColor=#ffffff;startArrow=none;startFill=0;startSize=6;endArrow=classic;endFill=1;endSize=6;jettySize=auto;orthogonalLoop=1;strokeWidth=1;dashed=1;fontSize=14;rounded=0;entryX=0.75;entryY=0;entryDx=0;entryDy=0;exitX=0.75;exitY=1;exitDx=0;exitDy=0;" edge="1" parent="1" source="dCMI-PgEhmH9NBmvwDKB-32" target="dCMI-PgEhmH9NBmvwDKB-14">
          <mxGeometry width="60" height="60" relative="1" as="geometry">
            <mxPoint x="390" y="268" as="sourcePoint" />
            <mxPoint x="210" y="268" as="targetPoint" />
          </mxGeometry>
        </mxCell>
        <mxCell id="dCMI-PgEhmH9NBmvwDKB-80" value="Risk Assessment Result&amp;nbsp;" style="edgeLabel;html=1;align=center;verticalAlign=middle;resizable=0;points=[];" vertex="1" connectable="0" parent="dCMI-PgEhmH9NBmvwDKB-72">
          <mxGeometry x="0.1222" y="2" relative="1" as="geometry">
            <mxPoint as="offset" />
          </mxGeometry>
        </mxCell>
        <mxCell id="dCMI-PgEhmH9NBmvwDKB-73" value="" style="html=1;labelBackgroundColor=#ffffff;startArrow=none;startFill=0;startSize=6;endArrow=classic;endFill=1;endSize=6;jettySize=auto;orthogonalLoop=1;strokeWidth=1;dashed=1;fontSize=14;rounded=0;entryX=0.75;entryY=0;entryDx=0;entryDy=0;exitX=0.75;exitY=1;exitDx=0;exitDy=0;" edge="1" parent="1" source="dCMI-PgEhmH9NBmvwDKB-33" target="dCMI-PgEhmH9NBmvwDKB-10">
          <mxGeometry width="60" height="60" relative="1" as="geometry">
            <mxPoint x="400" y="278" as="sourcePoint" />
            <mxPoint x="220" y="278" as="targetPoint" />
          </mxGeometry>
        </mxCell>
        <mxCell id="dCMI-PgEhmH9NBmvwDKB-79" value="Session Created" style="edgeLabel;html=1;align=center;verticalAlign=middle;resizable=0;points=[];" vertex="1" connectable="0" parent="dCMI-PgEhmH9NBmvwDKB-73">
          <mxGeometry x="0.0333" y="3" relative="1" as="geometry">
            <mxPoint as="offset" />
          </mxGeometry>
        </mxCell>
        <mxCell id="dCMI-PgEhmH9NBmvwDKB-74" value="" style="html=1;labelBackgroundColor=#ffffff;startArrow=none;startFill=0;startSize=6;endArrow=classic;endFill=1;endSize=6;jettySize=auto;orthogonalLoop=1;strokeWidth=1;dashed=1;fontSize=14;rounded=0;entryX=0.75;entryY=0;entryDx=0;entryDy=0;exitX=0.75;exitY=1;exitDx=0;exitDy=0;" edge="1" parent="1" source="dCMI-PgEhmH9NBmvwDKB-42" target="dCMI-PgEhmH9NBmvwDKB-11">
          <mxGeometry width="60" height="60" relative="1" as="geometry">
            <mxPoint x="370" y="738" as="sourcePoint" />
            <mxPoint x="190" y="738" as="targetPoint" />
          </mxGeometry>
        </mxCell>
        <mxCell id="dCMI-PgEhmH9NBmvwDKB-83" value="Amount of Nalaxone" style="edgeLabel;html=1;align=center;verticalAlign=middle;resizable=0;points=[];" vertex="1" connectable="0" parent="dCMI-PgEhmH9NBmvwDKB-74">
          <mxGeometry x="0.2" y="1" relative="1" as="geometry">
            <mxPoint as="offset" />
          </mxGeometry>
        </mxCell>
        <mxCell id="dCMI-PgEhmH9NBmvwDKB-75" value="" style="html=1;labelBackgroundColor=#ffffff;startArrow=none;startFill=0;startSize=6;endArrow=classic;endFill=1;endSize=6;jettySize=auto;orthogonalLoop=1;strokeWidth=1;dashed=1;fontSize=14;rounded=0;exitX=0.75;exitY=1;exitDx=0;exitDy=0;" edge="1" parent="1" source="dCMI-PgEhmH9NBmvwDKB-29">
          <mxGeometry width="60" height="60" relative="1" as="geometry">
            <mxPoint x="370" y="248" as="sourcePoint" />
            <mxPoint x="380" y="240" as="targetPoint" />
          </mxGeometry>
        </mxCell>
        <mxCell id="dCMI-PgEhmH9NBmvwDKB-86" value="Account Details Added" style="edgeLabel;html=1;align=center;verticalAlign=middle;resizable=0;points=[];" vertex="1" connectable="0" parent="dCMI-PgEhmH9NBmvwDKB-75">
          <mxGeometry x="0.1367" y="-1" relative="1" as="geometry">
            <mxPoint as="offset" />
          </mxGeometry>
        </mxCell>
        <mxCell id="dCMI-PgEhmH9NBmvwDKB-76" value="" style="html=1;labelBackgroundColor=#ffffff;startArrow=none;startFill=0;startSize=6;endArrow=classic;endFill=1;endSize=6;jettySize=auto;orthogonalLoop=1;strokeWidth=1;dashed=1;fontSize=14;rounded=0;exitX=0.75;exitY=1;exitDx=0;exitDy=0;entryX=0.75;entryY=0;entryDx=0;entryDy=0;" edge="1" parent="1" source="dCMI-PgEhmH9NBmvwDKB-28" target="dCMI-PgEhmH9NBmvwDKB-33">
          <mxGeometry width="60" height="60" relative="1" as="geometry">
            <mxPoint x="580" y="248" as="sourcePoint" />
            <mxPoint x="390" y="250" as="targetPoint" />
          </mxGeometry>
        </mxCell>
        <mxCell id="dCMI-PgEhmH9NBmvwDKB-84" value="Authentication Successful" style="edgeLabel;html=1;align=center;verticalAlign=middle;resizable=0;points=[];" vertex="1" connectable="0" parent="dCMI-PgEhmH9NBmvwDKB-76">
          <mxGeometry x="0.0947" y="4" relative="1" as="geometry">
            <mxPoint as="offset" />
          </mxGeometry>
        </mxCell>
        <mxCell id="dCMI-PgEhmH9NBmvwDKB-77" value="" style="html=1;labelBackgroundColor=#ffffff;startArrow=none;startFill=0;startSize=6;endArrow=classic;endFill=1;endSize=6;jettySize=auto;orthogonalLoop=1;strokeWidth=1;dashed=1;fontSize=14;rounded=0;exitX=0.75;exitY=1;exitDx=0;exitDy=0;entryX=0.75;entryY=0;entryDx=0;entryDy=0;" edge="1" parent="1" source="dCMI-PgEhmH9NBmvwDKB-27" target="dCMI-PgEhmH9NBmvwDKB-32">
          <mxGeometry width="60" height="60" relative="1" as="geometry">
            <mxPoint x="580" y="248" as="sourcePoint" />
            <mxPoint x="390" y="250" as="targetPoint" />
          </mxGeometry>
        </mxCell>
        <mxCell id="dCMI-PgEhmH9NBmvwDKB-87" value="Acquired data" style="edgeLabel;html=1;align=center;verticalAlign=middle;resizable=0;points=[];" vertex="1" connectable="0" parent="dCMI-PgEhmH9NBmvwDKB-77">
          <mxGeometry x="0.0842" y="2" relative="1" as="geometry">
            <mxPoint as="offset" />
          </mxGeometry>
        </mxCell>
        <mxCell id="dCMI-PgEhmH9NBmvwDKB-78" value="" style="html=1;labelBackgroundColor=#ffffff;startArrow=none;startFill=0;startSize=6;endArrow=classic;endFill=1;endSize=6;jettySize=auto;orthogonalLoop=1;strokeWidth=1;dashed=1;fontSize=14;rounded=0;exitX=0.75;exitY=1;exitDx=0;exitDy=0;entryX=0.75;entryY=0;entryDx=0;entryDy=0;" edge="1" parent="1" source="dCMI-PgEhmH9NBmvwDKB-26" target="dCMI-PgEhmH9NBmvwDKB-30">
          <mxGeometry width="60" height="60" relative="1" as="geometry">
            <mxPoint x="580" y="498" as="sourcePoint" />
            <mxPoint x="390" y="498" as="targetPoint" />
          </mxGeometry>
        </mxCell>
        <mxCell id="dCMI-PgEhmH9NBmvwDKB-88" value="Contact Acquired" style="edgeLabel;html=1;align=center;verticalAlign=middle;resizable=0;points=[];" vertex="1" connectable="0" parent="dCMI-PgEhmH9NBmvwDKB-78">
          <mxGeometry x="0.0842" y="3" relative="1" as="geometry">
            <mxPoint as="offset" />
          </mxGeometry>
        </mxCell>
      </root>
    </mxGraphModel>
  </diagram>
</mxfile>
